<?xml version="1.0" standalone="no"?>
<!DOCTYPE svg PUBLIC "-//W3C//DTD SVG 20010904//EN"
 "http://www.w3.org/TR/2001/REC-SVG-20010904/DTD/svg10.dtd">
<svg version="1.0" xmlns="http://www.w3.org/2000/svg"
 width="700.000000pt" height="700.000000pt" viewBox="0 0 700.000000 700.000000"
 preserveAspectRatio="xMidYMid meet">
<metadata>
Created by potrace 1.11, written by Peter Selinger 2001-2013
</metadata>
<g transform="translate(0.000000,700.000000) scale(0.100000,-0.100000)"
fill="#000000" stroke="none">
<path d="M3360 3590 l0 -1230 50 0 50 0 0 1230 0 1230 -50 0 -50 0 0 -1230z"/>
<path d="M5243 4501 c-117 -40 -168 -113 -161 -235 6 -132 66 -185 258 -227
166 -36 208 -65 217 -152 6 -59 -21 -106 -77 -135 -40 -21 -56 -23 -145 -20
-98 4 -116 9 -242 65 -10 4 -13 -11 -13 -55 l0 -60 83 -23 c65 -19 105 -23
197 -23 170 1 250 38 296 138 44 95 27 211 -42 280 -44 44 -95 65 -222 93 -64
14 -130 32 -145 40 -58 29 -71 120 -26 177 37 46 76 60 169 60 79 0 118 -9
223 -49 15 -6 17 0 17 49 l0 55 -38 11 c-132 35 -267 40 -349 11z"/>
<path d="M4240 4201 c0 -284 2 -314 21 -376 26 -85 81 -144 160 -171 64 -22
210 -25 276 -6 61 18 124 70 156 129 39 73 48 170 45 473 l-3 255 -57 3 -57 3
-3 -318 c-3 -316 -3 -318 -28 -368 -35 -70 -81 -95 -179 -95 -107 0 -151 23
-188 98 l-28 57 -4 313 -3 312 -54 0 -54 0 0 -309z"/>
<path d="M1483 4161 c-137 -22 -277 -82 -417 -179 -135 -92 -292 -155 -494
-196 l-107 -21 -8 -60 c-5 -33 -6 -114 -3 -180 15 -356 199 -703 491 -923 89
-67 285 -164 396 -196 422 -121 886 -4 1198 303 239 234 371 544 371 873 l0
109 -67 -6 c-135 -14 -345 42 -504 133 -41 24 -128 83 -194 133 -135 102 -239
159 -347 189 -82 23 -236 33 -315 21z"/>
<path d="M4483 3215 c-193 -54 -310 -269 -275 -505 16 -114 46 -182 108 -249
70 -76 142 -109 255 -118 l83 -6 59 -64 59 -63 70 0 70 0 -71 77 c-39 42 -71
80 -71 83 0 3 17 16 39 28 149 84 223 321 169 537 -28 114 -111 216 -211 261
-75 33 -203 42 -284 19z m198 -91 c78 -23 141 -90 168 -179 40 -128 24 -303
-35 -397 -73 -115 -240 -149 -357 -72 -101 67 -153 226 -127 389 34 210 172
312 351 259z"/>
<path d="M5170 2907 c0 -349 5 -382 63 -459 20 -27 55 -54 92 -73 54 -27 67
-30 159 -30 56 0 120 6 143 13 66 20 124 70 158 137 l30 59 3 333 3 333 -55 0
-54 0 -5 -312 c-2 -209 -8 -326 -16 -351 -30 -92 -133 -141 -248 -118 -70 14
-110 43 -137 100 -20 43 -21 65 -24 364 l-3 317 -55 0 -54 0 0 -313z"/>
<path d="M6047 3214 c-4 -4 -7 -198 -7 -431 l0 -423 60 0 60 0 -2 428 -3 427
-50 3 c-28 2 -54 0 -58 -4z"/>
<path d="M6340 3170 l0 -50 264 -2 265 -3 -270 -333 c-261 -324 -269 -335
-269 -378 l0 -44 335 0 335 0 0 45 0 45 -260 0 c-143 0 -260 3 -260 8 0 4 117
152 260 329 l260 322 0 55 0 56 -330 0 -330 0 0 -50z"/>
</g>
</svg>
