<svg xmlns="http://www.w3.org/2000/svg" version="1.1" xmlns:xlink="http://www.w3.org/1999/xlink" xmlns:svgjs="http://svgjs.com/svgjs" height="100%" width="100%" viewBox="0 0 300 300">
<g id="svg-container" transform="matrix(3.83,0,0,3.83,-91.95635271072388,90.66234490394592)">
<g id="headline" transform="matrix(1,0,0,1,0,-8.881784197001252e-16)">
<text data-font-id="1624" font-family="microbrew_three_combined" id="headline_0" transform="matrix(1,0,0,1,50.684933774834434,-8.881784197001252e-16)" svgjs:data="{&quot;leading&quot;:&quot;1.3&quot;}"><tspan dy="20.8" x="0" fill="#f47c48" svgjs:data="{&quot;leading&quot;:&quot;1.3&quot;,&quot;newLined&quot;:true}">
Wilfred</tspan></text></g>
<g id="symbols" transform="matrix(2.4000000644712074,0,0,2.4000000644712074,29.120601197482294,5.447957269770814)">
<svg enable-background="new 0 0 176.6 185.2" version="1.1" viewBox="0 0 176.6 185.2" xml:space="preserve" xmlns="http://www.w3.org/2000/svg" data-external-asset-id="631245" width="7.982629983085302" height="8.371365078524338" id="symbols_0" fill="#000000">
<style type="text/css">.st0{fill:#f47c48;}
</style>
<path class="st0" d="m55.2 7.5c0.9-0.4 1.9-0.8 2.9-1.2 0.9-0.4 1.9-0.8 2.9-1.1 2-0.7 3.9-1.4 5.9-1.9-17.1 4.4-33.2 14.3-45 28.1-2.9 3.5-5.7 7.1-8.1 11s-4.5 7.9-6.4 12.1c-1.7 4.2-3.2 8.5-4.4 12.9s-1.9 8.9-2.5 13.4c-2 18.1 1.6 36.7 9.9 52.6 8.2 15.9 20.9 29.1 35.7 38 0.9 0.6 2 1.3 3.3 2.1s2.7 1.6 4.1 2.4c2.9 1.6 5.9 3 7.9 3.8s4.2 1.4 6.3 2.1c2.2 0.6 4.4 1.2 6.7 1.6 4.5 0.9 9.3 1.5 14.1 1.7s9.7 0 14.6-0.5 9.8-1.5 14.5-2.9c9.6-2.7 18.6-7.1 26.6-12.5 4-2.7 7.7-5.7 11.1-8.8 3.4-3.2 6.4-6.5 9.2-9.9 5.5-6.9 8.5-14.1 10-19.3 0.4-1.3 0.7-2.5 0.9-3.5s0.4-1.9 0.5-2.7c0.2-1.5 0.3-2.3 0.3-2.3 0.5-2.1 0.6-4.2 0.5-5.4-0.2-1.1-0.7-1.3-1.6 0.5-0.7 1.9-1.7 4.5-3 7.3-0.7 1.4-1.3 2.8-2.1 4.2-0.4 0.7-0.8 1.4-1.1 2.1-0.4 0.7-0.8 1.3-1.2 2-3.2 5.2-6.6 8.9-7.1 8.5-0.1-0.1 0.4-0.9 1.2-2.2 0.4-0.6 0.9-1.3 1.4-2.1s1-1.6 1.6-2.5c-0.6-0.4 0.1-3.4 0.9-6.8 0.2-0.8 0.4-1.7 0.6-2.6s0.4-1.7 0.6-2.5c0.4-1.6 0.8-3 1.1-3.8 0.2-0.9 0.7-3 1.2-5.7 0.2-1.3 0.5-2.8 0.7-4.4s0.4-3.2 0.5-4.8c0.1-0.8 0.1-1.6 0.2-2.4 0-0.8 0-1.6 0.1-2.4 0.1-1.5 0-3-0.1-4.3 0-1.3-0.1-2.5-0.2-3.4-0.1-1-0.2-1.7-0.3-2.1-0.3-2.8-0.8-2.8-1.4-1-0.7 1.8-1.4 5.2-2.6 9.2s-2.9 8.6-4.8 12.7c-1.9 4.2-4.1 8-5.8 10.8-1.8 2.8-2.2 2.5-2.2 1.6s0.2-2.6-0.2-2.8c-0.3 0.7-0.6 1.4-1 2-0.3 0.6-0.7 1.2-1 1.7-0.7 1.1-1.4 2.1-2.1 3-1.4 1.9-3 3.7-4.8 6.2-0.1-0.1-0.9 0.8-2.2 2.2-0.7 0.7-1.5 1.5-2.4 2.3-1 0.8-1.9 1.8-3.1 2.7-2.2 1.9-4.8 3.8-7.4 5.5-1.3 0.8-2.6 1.6-3.8 2.3s-2.4 1.3-3.4 1.8c0 0-0.6 0.5-2.4 1.3-0.4 0.2-0.9 0.5-1.5 0.7s-1.3 0.5-2 0.8-1.6 0.6-2.5 0.9c-0.5 0.2-0.9 0.3-1.5 0.5-0.5 0.1-1.1 0.3-1.6 0.5-1.5 0.4-2.2 0.7-2.6 0.9s-0.3 0.4-0.3 0.5c-0.1-0.3-0.1-0.3-0.2-0.7-1.4 0.7-3.8 1.2-6.1 1.4-2.3 0.3-4.7 0.4-6.3 0.6v-0.7c-1.6 0.2-3.1 0.4-4.7 0.3-0.8 0-1.6 0-2.4-0.1l-2.3-0.2c-3.1-0.4-6.2-0.9-9.3-1.5 0.1-0.3 0.1-0.3 0.2-0.7-3-0.7-6-1.7-5.8-2l0.2-0.6c-1.4-0.6-3.6-1.4-5.3-2.1-0.9-0.4-1.7-0.7-2.2-1s-0.8-0.6-0.8-0.7c-0.2 0.3-0.2 0.3-0.3 0.6-2.8-1.3-5.2-2.9-7.5-4.4-2.2-1.6-4.3-3.2-6.1-4.9-3.7-3.3-6.7-6.8-9.3-10.6-1.7-2.5-3.3-5.2-4.7-8.1s-2.7-5.8-3.8-9c-1.1-3.1-2-6.4-2.6-9.7-0.7-3.3-1-6.8-1.2-10.2-0.2-3.5 0-7 0.3-10.5s1-7 1.9-10.3c0.9-3.4 2.1-6.7 3.5-9.9s3.1-6.2 4.9-9.1c1.7-2.5 3.2-5.3 0.7-3.3 1.9-2.5 3.9-4.8 6.1-7 1.1-1.1 1.8-1.8 2.2-2.3s0.7-0.9 0.9-1.2c0.4-0.7 0.8-1.4 3.3-3.4 9.8-8 22-12.9 34.7-14.2s25.7 1.2 37.1 6.9 21.1 14.7 27.8 25.5 10.4 23.4 10.7 36.2c0.1-6.4-0.4-12-1.6-17.5-1.3-5.5-3.2-10.9-6.5-16.4 0.3-0.2 0.9-0.5-0.8-3.3-2.5-4.2-5.7-8.3-9.2-12s-7.4-6.9-11.3-9.5c-7.8-5.4-15.5-8.3-20.1-10.3-1.5-0.6-3.1-1.3-5.5-2.2-2.4-0.7-5.7-1.6-10.8-1.9 3.4 0.2 6.8 0.5 10.1 1.2 0.1-0.3 0.2-1 0.2-1-6.7-1.5-14.5-2-22.3-1.3s-15.4 2.7-21.8 5.4c0 0-0.3-0.6-0.4-0.9-2.2 0.9-4.3 2-6.3 3.1-0.9 0.2-1.2 0-0.9-0.4s1-1.1 2.3-1.9c2.5-1.7 6.8-3.9 12.2-5.7 5.3-1.9 11.7-3.2 17.9-3.6 6.2-0.5 12.1-0.2 16.6 0.4 0-0.3 0.1-1 0.2-1.4-2.4-0.4-4.9-0.5-7.4-0.7v-0.7c11.2 0.5 21.3 3.2 30.6 7.6s17.8 10.5 25.4 18.7c-0.6-0.7-1.5-1.5-2.3-2.5-0.9-0.9-1.9-1.9-2.9-2.8-1.1-0.9-2.1-1.8-3.1-2.7-1-0.8-1.9-1.5-2.7-2.1 0.2-0.3 0.4-0.6-2.6-2.7 6.2 4.3 12.5 10 17.7 16.7 1.3 1.6 2.5 3.4 3.8 5.1 1.1 1.8 2.3 3.5 3.3 5.3 2.1 3.6 3.9 7.1 5.4 10.6 0.9 1.7 1.2 1.6 0.8-0.3-0.2-0.9-0.5-2.4-1.2-4.2-0.6-1.8-1.6-4-2.9-6.6-2.8-5-5.6-9-8.7-12.7s-6.5-7.2-10.9-10.9l0.4-0.5c3 2.5 6.5 5.9 9.6 9.6 3.2 3.7 6 7.6 8.2 10.9 1.2 1.6 0.4-0.2-0.5-2-0.4-0.9-0.9-1.8-1.1-2.2-0.2-0.5-0.1-0.5 0.5 0.2 2.2 3.3 4.3 6.6 6.3 10.1-2.7-5.3-6.4-11.2-10.9-16.5s-9.6-10-14.2-13.8c-1.5-1.3-3-2.6-4.1-3.6s-1.9-1.7-1.7-2c-8.7-5.1-17.1-8.6-24.9-10.9-8.2-2.1-15.3-3.5-21.5-4.3-2-0.3-8.3-0.4-15.5 0.9-0.9 0.2-1.8 0.3-2.7 0.5s-1.8 0.4-2.8 0.6c-1.9 0.4-3.7 1-5.5 1.5-3.6 1.2-7 2.5-9.8 3.8z">
</path></svg></g></g><defs>
<style>@font-face {font-family: microbrew_three_combined;src: url(https://pismo.tailorbrands.com/v2/px_fonts/microbrew_three_combined)}
</style></defs></svg>